<svg width="180" height="270" xmlns="http://www.w3.org/2000/svg">
 <!-- Created with Method Draw - http://github.com/duopixel/Method-Draw/ -->

 <g>
  <title>background</title>
  <rect x="-1" y="-1" width="182" height="272" id="canvas_background" fill="#000000"/>
  <g id="canvasGrid" display="none">
   <rect id="svg_2" width="100%" height="100%" x="0" y="0" stroke-width="0" fill="url(#gridpattern)"/>
  </g>
 </g>
 <g>
  <title>Layer 1</title>
  <rect fill="#008000" stroke="#ffffff" stroke-width="33" x="0" y="0" width="180" height="270" id="svg_1" rx="33"/>
  <rect fill="#ffffff" stroke-width="1.5" x="135.285247" y="137.040807" width="6" height="129.141006" id="svg_3" transform="rotate(30 138.2852478027344,201.611328125) " stroke="#ffffff"/>
  <rect fill="#ffffff" stroke-width="1.5" x="124.905443" y="106.869811" width="6" height="163.621773" id="svg_4" transform="rotate(30 127.90544128417969,188.68069458007812) " stroke="#ffffff"/>
  <path id="svg_5" d="m57.947162,121.032583c-13.312381,0 -24.109353,-10.796972 -24.109353,-24.109353l0,0c0.008036,-10.684462 6.967603,-19.685287 16.583217,-22.839594l0,0c0.333513,-9.08119 7.783303,-16.330069 16.940839,-16.338105l0,0c2.933305,0 5.685789,0.763463 8.076633,2.077423l0,0c5.087074,-8.458365 14.345065,-14.128081 24.945144,-14.132099l0,0c15.859936,0.008036 28.75844,12.677502 29.124099,28.445018l0,0c9.491049,3.230653 16.322032,12.191296 16.330069,22.787357l0,0c0,13.312381 -10.796972,24.109353 -24.109353,24.109353l0,0l-63.781294,0l0,0zm66.706562,-39.880888c-2.053313,-0.381731 -3.471747,-2.258243 -3.274854,-4.335665l0,0c0.06831,-0.687117 0.108492,-1.350124 0.108492,-1.997058l0,0c-0.028128,-11.648836 -9.450866,-21.075593 -21.099702,-21.091666l0,0c-9.036989,-0.008036 -16.723855,5.697844 -19.733506,13.702149l0,0c-0.490224,1.297887 -1.6314,2.266279 -3.005633,2.531482l0,0c-1.366197,0.265203 -2.788649,-0.208948 -3.724895,-1.241632l0,0c-1.671582,-1.820256 -3.96197,-2.937323 -6.561762,-2.937323l0,0c-4.922326,0.008036 -8.904388,3.990098 -8.920461,8.912424l0,0c0,0.546479 0.06831,1.10903 0.18082,1.703728l0,0c0.196893,1.068848 -0.032146,2.169842 -0.654971,3.061888l0,0c-0.622825,0.896064 -1.575144,1.490762 -2.639974,1.663545l0,0c-7.634628,1.257705 -13.469092,7.831522 -13.461055,15.795645l0,0c0.016073,8.87626 7.20066,16.052811 16.07692,16.07692l0,0l63.785312,0c8.87626,-0.024109 16.048793,-7.20066 16.068884,-16.07692l0,0c0.016073,-7.863667 -5.665698,-14.385247 -13.143616,-15.767517l0,0" stroke-width="2" stroke="#000000" fill="#ffffff"/>
 </g>
</svg>