<svg width="180" height="270" xmlns="http://www.w3.org/2000/svg">
 <!-- Created with Method Draw - http://github.com/duopixel/Method-Draw/ -->

 <g>
  <title>background</title>
  <rect x="-1" y="-1" width="182" height="272" id="canvas_background" fill="#000000"/>
  <g id="canvasGrid" display="none">
   <rect id="svg_2" width="100%" height="100%" x="0" y="0" stroke-width="0" fill="url(#gridpattern)"/>
  </g>
 </g>
 <g>
  <title>Layer 1</title>
  <rect fill="#008000" stroke="#ffffff" stroke-width="33" width="180" height="270" id="svg_1" rx="33"/>
  <rect fill="#ffffff" stroke-width="1.5" x="135.285247" y="137.040807" width="6" height="129.141006" id="svg_3" transform="rotate(30 138.2852478027344,201.611328125) " stroke="#ffffff"/>
  <rect fill="#ffffff" stroke-width="1.5" x="124.905443" y="106.869811" width="6" height="163.621773" id="svg_4" transform="rotate(30 127.90544128417969,188.68069458007812) " stroke="#ffffff"/>
  <path id="svg_6" d="m47.227103,64.798058c0.002548,-0.969734 0.870585,-6.915398 1.929671,-13.212652c3.302403,-19.636 3.350982,-19.722654 7.543894,-13.464226l2.480697,3.702752l7.254782,-3.66222c9.595806,-4.843934 21.04583,-6.635869 31.571074,-4.940835c4.467853,0.719554 9.208571,1.889074 10.534939,2.598925c2.633363,1.409293 2.464561,2.619579 -1.732527,12.421893c-2.300329,5.372477 -2.521133,5.525593 -6.494692,4.50415c-6.763134,-1.738441 -17.775467,-1.190872 -23.092271,1.148242l-4.985017,2.193221l3.499115,3.65228c1.924522,2.008808 3.014742,3.951692 2.422735,4.317559c-0.592029,0.365878 -7.79493,1.078988 -16.006433,1.584626c-12.320038,0.758689 -14.929324,0.611236 -14.925965,-0.843712l-0.000004,-0.000004zm63.438542,54.140472l-5.336938,-7.068672l4.859315,-4.698889c5.001341,-4.836166 8.60838,-11.626091 10.197489,-19.195974l0.906856,-4.319813l-5.230443,0.836339c-2.876748,0.460048 -5.248146,0.400271 -5.269773,-0.132778c-0.101005,-2.488668 13.576415,-27.021317 14.905875,-26.736122c2.090382,0.448413 23.298509,18.81706 23.298509,20.179064c0,0.607899 -2.228898,1.461705 -4.953067,1.897311l-4.953078,0.791992l-0.488845,8.44629c-0.626993,10.832697 -6.335209,23.335107 -14.28264,31.282515c-3.183104,3.183138 -6.356464,5.78749 -7.051893,5.78749c-0.695447,0 -3.666053,-3.180958 -6.601368,-7.068747l0,-0.000004zm-48.176586,19.81296c0,-0.781594 0.838462,-3.042445 1.863246,-5.024159c1.859285,-3.595445 1.848522,-3.612901 -5.08302,-8.215197c-10.844907,-7.200601 -18.905938,-19.981228 -21.441486,-33.995192l-0.831258,-4.594382l5.926893,-0.812341c12.217605,-1.67461 12.329174,-1.62399 14.776054,6.703034c1.651156,5.619079 3.681926,8.986479 8.059529,13.364062c3.218692,3.218707 6.301892,5.574205 6.851566,5.234497c0.549651,-0.3397 1.345232,-2.346953 1.767964,-4.460585c0.422728,-2.113632 1.304207,-3.842987 1.958836,-3.842987c1.502948,0 15.65618,22.315904 15.880873,25.039923c0.150057,1.819346 -7.500802,4.969399 -27.440114,11.297874c-1.271427,0.403521 -2.289077,0.094808 -2.289077,-0.694553l-0.000004,0.000004z" fill-opacity="null" stroke-opacity="null" stroke-width="4.5" stroke="#000" fill="#fff"/>
 </g>
</svg>